<mxfile host="Electron" agent="Mozilla/5.0 (Windows NT 10.0; Win64; x64) AppleWebKit/537.36 (KHTML, like Gecko) draw.io/26.0.4 Chrome/128.0.6613.186 Electron/32.2.5 Safari/537.36" version="26.0.4" pages="2">
  <diagram id="C5RBs43oDa-KdzZeNtuy" name="Page-1">
    <mxGraphModel dx="1223" dy="898" grid="1" gridSize="10" guides="1" tooltips="1" connect="1" arrows="1" fold="1" page="1" pageScale="1" pageWidth="827" pageHeight="1169" math="0" shadow="0">
      <root>
        <mxCell id="WIyWlLk6GJQsqaUBKTNV-0" />
        <mxCell id="WIyWlLk6GJQsqaUBKTNV-1" parent="WIyWlLk6GJQsqaUBKTNV-0" />
        <mxCell id="WIyWlLk6GJQsqaUBKTNV-2" value="" style="rounded=0;html=1;jettySize=auto;orthogonalLoop=1;fontSize=11;endArrow=block;endFill=0;endSize=8;strokeWidth=1;shadow=0;labelBackgroundColor=none;edgeStyle=orthogonalEdgeStyle;" parent="WIyWlLk6GJQsqaUBKTNV-1" source="WIyWlLk6GJQsqaUBKTNV-3" target="WIyWlLk6GJQsqaUBKTNV-6" edge="1">
          <mxGeometry relative="1" as="geometry" />
        </mxCell>
        <mxCell id="WIyWlLk6GJQsqaUBKTNV-3" value="Lamp doesn&#39;t work" style="rounded=1;whiteSpace=wrap;html=1;fontSize=12;glass=0;strokeWidth=1;shadow=0;" parent="WIyWlLk6GJQsqaUBKTNV-1" vertex="1">
          <mxGeometry x="160" y="80" width="120" height="40" as="geometry" />
        </mxCell>
        <mxCell id="WIyWlLk6GJQsqaUBKTNV-4" value="Yes" style="rounded=0;html=1;jettySize=auto;orthogonalLoop=1;fontSize=11;endArrow=block;endFill=0;endSize=8;strokeWidth=1;shadow=0;labelBackgroundColor=none;edgeStyle=orthogonalEdgeStyle;" parent="WIyWlLk6GJQsqaUBKTNV-1" source="WIyWlLk6GJQsqaUBKTNV-6" target="WIyWlLk6GJQsqaUBKTNV-10" edge="1">
          <mxGeometry y="20" relative="1" as="geometry">
            <mxPoint as="offset" />
          </mxGeometry>
        </mxCell>
        <mxCell id="WIyWlLk6GJQsqaUBKTNV-5" value="No" style="edgeStyle=orthogonalEdgeStyle;rounded=0;html=1;jettySize=auto;orthogonalLoop=1;fontSize=11;endArrow=block;endFill=0;endSize=8;strokeWidth=1;shadow=0;labelBackgroundColor=none;" parent="WIyWlLk6GJQsqaUBKTNV-1" source="WIyWlLk6GJQsqaUBKTNV-6" target="WIyWlLk6GJQsqaUBKTNV-7" edge="1">
          <mxGeometry y="10" relative="1" as="geometry">
            <mxPoint as="offset" />
          </mxGeometry>
        </mxCell>
        <mxCell id="WIyWlLk6GJQsqaUBKTNV-6" value="Lamp&lt;br&gt;plugged in?" style="rhombus;whiteSpace=wrap;html=1;shadow=0;fontFamily=Helvetica;fontSize=12;align=center;strokeWidth=1;spacing=6;spacingTop=-4;" parent="WIyWlLk6GJQsqaUBKTNV-1" vertex="1">
          <mxGeometry x="170" y="170" width="100" height="80" as="geometry" />
        </mxCell>
        <mxCell id="WIyWlLk6GJQsqaUBKTNV-7" value="Plug in lamp" style="rounded=1;whiteSpace=wrap;html=1;fontSize=12;glass=0;strokeWidth=1;shadow=0;" parent="WIyWlLk6GJQsqaUBKTNV-1" vertex="1">
          <mxGeometry x="320" y="190" width="120" height="40" as="geometry" />
        </mxCell>
        <mxCell id="WIyWlLk6GJQsqaUBKTNV-8" value="No" style="rounded=0;html=1;jettySize=auto;orthogonalLoop=1;fontSize=11;endArrow=block;endFill=0;endSize=8;strokeWidth=1;shadow=0;labelBackgroundColor=none;edgeStyle=orthogonalEdgeStyle;" parent="WIyWlLk6GJQsqaUBKTNV-1" source="WIyWlLk6GJQsqaUBKTNV-10" target="WIyWlLk6GJQsqaUBKTNV-11" edge="1">
          <mxGeometry x="0.3333" y="20" relative="1" as="geometry">
            <mxPoint as="offset" />
          </mxGeometry>
        </mxCell>
        <mxCell id="WIyWlLk6GJQsqaUBKTNV-9" value="Yes" style="edgeStyle=orthogonalEdgeStyle;rounded=0;html=1;jettySize=auto;orthogonalLoop=1;fontSize=11;endArrow=block;endFill=0;endSize=8;strokeWidth=1;shadow=0;labelBackgroundColor=none;" parent="WIyWlLk6GJQsqaUBKTNV-1" source="WIyWlLk6GJQsqaUBKTNV-10" target="WIyWlLk6GJQsqaUBKTNV-12" edge="1">
          <mxGeometry y="10" relative="1" as="geometry">
            <mxPoint as="offset" />
          </mxGeometry>
        </mxCell>
        <mxCell id="WIyWlLk6GJQsqaUBKTNV-10" value="Bulb&lt;br&gt;burned out?" style="rhombus;whiteSpace=wrap;html=1;shadow=0;fontFamily=Helvetica;fontSize=12;align=center;strokeWidth=1;spacing=6;spacingTop=-4;" parent="WIyWlLk6GJQsqaUBKTNV-1" vertex="1">
          <mxGeometry x="170" y="290" width="100" height="80" as="geometry" />
        </mxCell>
        <mxCell id="WIyWlLk6GJQsqaUBKTNV-11" value="Repair Lamp" style="rounded=1;whiteSpace=wrap;html=1;fontSize=12;glass=0;strokeWidth=1;shadow=0;" parent="WIyWlLk6GJQsqaUBKTNV-1" vertex="1">
          <mxGeometry x="160" y="430" width="120" height="40" as="geometry" />
        </mxCell>
        <mxCell id="WIyWlLk6GJQsqaUBKTNV-12" value="Replace Bulb" style="rounded=1;whiteSpace=wrap;html=1;fontSize=12;glass=0;strokeWidth=1;shadow=0;" parent="WIyWlLk6GJQsqaUBKTNV-1" vertex="1">
          <mxGeometry x="320" y="310" width="120" height="40" as="geometry" />
        </mxCell>
      </root>
    </mxGraphModel>
  </diagram>
  <diagram id="xnG6W_aPYo296-8Vn1PI" name="Combat">
    <mxGraphModel dx="1674" dy="1936" grid="1" gridSize="10" guides="1" tooltips="1" connect="1" arrows="1" fold="1" page="1" pageScale="1" pageWidth="850" pageHeight="1100" math="0" shadow="0">
      <root>
        <mxCell id="0" />
        <mxCell id="1" parent="0" />
        <mxCell id="A-hFq6y9e0NyLAFTUYRx-2" value="Player Turn" style="swimlane;horizontal=0;whiteSpace=wrap;html=1;" parent="1" vertex="1">
          <mxGeometry x="25" y="40" width="875" height="420" as="geometry" />
        </mxCell>
        <mxCell id="A-hFq6y9e0NyLAFTUYRx-6" value="" style="edgeStyle=orthogonalEdgeStyle;rounded=0;orthogonalLoop=1;jettySize=auto;html=1;entryX=0.5;entryY=0;entryDx=0;entryDy=0;" parent="A-hFq6y9e0NyLAFTUYRx-2" source="A-hFq6y9e0NyLAFTUYRx-4" target="A-hFq6y9e0NyLAFTUYRx-5" edge="1">
          <mxGeometry relative="1" as="geometry" />
        </mxCell>
        <mxCell id="A-hFq6y9e0NyLAFTUYRx-10" value="" style="edgeStyle=orthogonalEdgeStyle;rounded=0;orthogonalLoop=1;jettySize=auto;html=1;" parent="A-hFq6y9e0NyLAFTUYRx-2" source="A-hFq6y9e0NyLAFTUYRx-4" target="A-hFq6y9e0NyLAFTUYRx-9" edge="1">
          <mxGeometry relative="1" as="geometry" />
        </mxCell>
        <mxCell id="A-hFq6y9e0NyLAFTUYRx-4" value="&lt;div&gt;&quot;L-Click&quot;&lt;/div&gt;&lt;div&gt;on player unit&lt;/div&gt;" style="shape=parallelogram;perimeter=parallelogramPerimeter;whiteSpace=wrap;html=1;fixedSize=1;" parent="A-hFq6y9e0NyLAFTUYRx-2" vertex="1">
          <mxGeometry x="40" y="30" width="120" height="60" as="geometry" />
        </mxCell>
        <mxCell id="A-hFq6y9e0NyLAFTUYRx-5" value="Display_Skills in the combo bar" style="whiteSpace=wrap;html=1;" parent="A-hFq6y9e0NyLAFTUYRx-2" vertex="1">
          <mxGeometry x="175" y="80" width="120" height="60" as="geometry" />
        </mxCell>
        <mxCell id="A-hFq6y9e0NyLAFTUYRx-12" value="" style="edgeStyle=orthogonalEdgeStyle;rounded=0;orthogonalLoop=1;jettySize=auto;html=1;" parent="A-hFq6y9e0NyLAFTUYRx-2" source="A-hFq6y9e0NyLAFTUYRx-9" target="A-hFq6y9e0NyLAFTUYRx-11" edge="1">
          <mxGeometry relative="1" as="geometry" />
        </mxCell>
        <mxCell id="A-hFq6y9e0NyLAFTUYRx-9" value="&lt;div&gt;&quot;R-Click&quot;&lt;/div&gt;" style="shape=parallelogram;perimeter=parallelogramPerimeter;whiteSpace=wrap;html=1;fixedSize=1;" parent="A-hFq6y9e0NyLAFTUYRx-2" vertex="1">
          <mxGeometry x="325" y="30" width="120" height="60" as="geometry" />
        </mxCell>
        <mxCell id="A-hFq6y9e0NyLAFTUYRx-14" value="" style="edgeStyle=orthogonalEdgeStyle;rounded=0;orthogonalLoop=1;jettySize=auto;html=1;" parent="A-hFq6y9e0NyLAFTUYRx-2" source="A-hFq6y9e0NyLAFTUYRx-11" target="A-hFq6y9e0NyLAFTUYRx-13" edge="1">
          <mxGeometry relative="1" as="geometry" />
        </mxCell>
        <mxCell id="A-hFq6y9e0NyLAFTUYRx-15" value="Yes" style="edgeLabel;html=1;align=center;verticalAlign=middle;resizable=0;points=[];" parent="A-hFq6y9e0NyLAFTUYRx-14" vertex="1" connectable="0">
          <mxGeometry x="-0.375" relative="1" as="geometry">
            <mxPoint as="offset" />
          </mxGeometry>
        </mxCell>
        <mxCell id="A-hFq6y9e0NyLAFTUYRx-17" value="" style="edgeStyle=orthogonalEdgeStyle;rounded=0;orthogonalLoop=1;jettySize=auto;html=1;" parent="A-hFq6y9e0NyLAFTUYRx-2" source="A-hFq6y9e0NyLAFTUYRx-11" target="A-hFq6y9e0NyLAFTUYRx-16" edge="1">
          <mxGeometry relative="1" as="geometry" />
        </mxCell>
        <mxCell id="A-hFq6y9e0NyLAFTUYRx-18" value="No" style="edgeLabel;html=1;align=center;verticalAlign=middle;resizable=0;points=[];" parent="A-hFq6y9e0NyLAFTUYRx-17" vertex="1" connectable="0">
          <mxGeometry x="-0.24" y="-1" relative="1" as="geometry">
            <mxPoint as="offset" />
          </mxGeometry>
        </mxCell>
        <mxCell id="A-hFq6y9e0NyLAFTUYRx-11" value="Open Space?&lt;div&gt;&lt;br&gt;&lt;/div&gt;" style="rhombus;whiteSpace=wrap;html=1;" parent="A-hFq6y9e0NyLAFTUYRx-2" vertex="1">
          <mxGeometry x="475" y="10" width="120" height="100" as="geometry" />
        </mxCell>
        <mxCell id="A-hFq6y9e0NyLAFTUYRx-13" value="Move to location" style="whiteSpace=wrap;html=1;" parent="A-hFq6y9e0NyLAFTUYRx-2" vertex="1">
          <mxGeometry x="635" y="30" width="120" height="60" as="geometry" />
        </mxCell>
        <mxCell id="A-hFq6y9e0NyLAFTUYRx-16" value="Basic weapon attack&amp;nbsp;" style="whiteSpace=wrap;html=1;" parent="A-hFq6y9e0NyLAFTUYRx-2" vertex="1">
          <mxGeometry x="475" y="160" width="120" height="60" as="geometry" />
        </mxCell>
        <mxCell id="A-hFq6y9e0NyLAFTUYRx-21" value="" style="edgeStyle=orthogonalEdgeStyle;rounded=0;orthogonalLoop=1;jettySize=auto;html=1;" parent="A-hFq6y9e0NyLAFTUYRx-2" source="A-hFq6y9e0NyLAFTUYRx-19" target="A-hFq6y9e0NyLAFTUYRx-20" edge="1">
          <mxGeometry relative="1" as="geometry" />
        </mxCell>
        <mxCell id="A-hFq6y9e0NyLAFTUYRx-19" value="Skill Selected&lt;div&gt;#-pressed/UI-Click&lt;/div&gt;" style="shape=parallelogram;perimeter=parallelogramPerimeter;whiteSpace=wrap;html=1;fixedSize=1;" parent="A-hFq6y9e0NyLAFTUYRx-2" vertex="1">
          <mxGeometry x="30" y="250" width="130" height="60" as="geometry" />
        </mxCell>
        <mxCell id="A-hFq6y9e0NyLAFTUYRx-23" value="" style="edgeStyle=orthogonalEdgeStyle;rounded=0;orthogonalLoop=1;jettySize=auto;html=1;entryX=0;entryY=0.5;entryDx=0;entryDy=0;" parent="A-hFq6y9e0NyLAFTUYRx-2" source="A-hFq6y9e0NyLAFTUYRx-20" target="ReKY2-A1L0_ajIybIJtD-1" edge="1">
          <mxGeometry relative="1" as="geometry">
            <mxPoint x="355" y="280" as="targetPoint" />
          </mxGeometry>
        </mxCell>
        <mxCell id="A-hFq6y9e0NyLAFTUYRx-20" value="Display available targets" style="whiteSpace=wrap;html=1;" parent="A-hFq6y9e0NyLAFTUYRx-2" vertex="1">
          <mxGeometry x="195" y="250" width="120" height="60" as="geometry" />
        </mxCell>
        <mxCell id="ReKY2-A1L0_ajIybIJtD-7" value="" style="edgeStyle=orthogonalEdgeStyle;rounded=0;orthogonalLoop=1;jettySize=auto;html=1;" edge="1" parent="A-hFq6y9e0NyLAFTUYRx-2" source="ReKY2-A1L0_ajIybIJtD-1" target="ReKY2-A1L0_ajIybIJtD-6">
          <mxGeometry relative="1" as="geometry" />
        </mxCell>
        <mxCell id="ReKY2-A1L0_ajIybIJtD-1" value="Click target" style="shape=parallelogram;perimeter=parallelogramPerimeter;whiteSpace=wrap;html=1;fixedSize=1;" vertex="1" parent="A-hFq6y9e0NyLAFTUYRx-2">
          <mxGeometry x="377.5" y="250" width="120" height="60" as="geometry" />
        </mxCell>
        <mxCell id="ReKY2-A1L0_ajIybIJtD-9" value="" style="edgeStyle=orthogonalEdgeStyle;rounded=0;orthogonalLoop=1;jettySize=auto;html=1;" edge="1" parent="A-hFq6y9e0NyLAFTUYRx-2" source="ReKY2-A1L0_ajIybIJtD-6" target="ReKY2-A1L0_ajIybIJtD-8">
          <mxGeometry relative="1" as="geometry" />
        </mxCell>
        <mxCell id="ReKY2-A1L0_ajIybIJtD-6" value="Display Confirm&lt;div&gt;Button&lt;/div&gt;" style="whiteSpace=wrap;html=1;" vertex="1" parent="A-hFq6y9e0NyLAFTUYRx-2">
          <mxGeometry x="555" y="250" width="120" height="60" as="geometry" />
        </mxCell>
        <mxCell id="ReKY2-A1L0_ajIybIJtD-8" value="Execute attack" style="whiteSpace=wrap;html=1;" vertex="1" parent="A-hFq6y9e0NyLAFTUYRx-2">
          <mxGeometry x="725" y="250" width="120" height="60" as="geometry" />
        </mxCell>
        <mxCell id="A-hFq6y9e0NyLAFTUYRx-3" value="&lt;h1 style=&quot;margin-top: 0px;&quot;&gt;Combat Overview&lt;/h1&gt;&lt;div&gt;&lt;br&gt;&lt;/div&gt;&lt;div&gt;High level view of Combat from the User&#39;s perspective. This is how I want the game function.&lt;/div&gt;" style="text;html=1;whiteSpace=wrap;overflow=hidden;rounded=0;" parent="1" vertex="1">
          <mxGeometry x="70" y="-130" width="180" height="120" as="geometry" />
        </mxCell>
      </root>
    </mxGraphModel>
  </diagram>
</mxfile>
